<svg width="17" height="17" viewBox="0 0 17 17" fill="none" xmlns="http://www.w3.org/2000/svg">
    <path d="M9 8C9.10352 8 9.20519 8.00786 9.30447 8.02303C8.91428 8.30203 8.56209 8.63078 8.25716 9H2C1.44772 9 1 9.44772 1 10V11.5C1 12.9071 2.57862 14 5.5 14C6.11725 14 6.67455 13.9512 7.16969 13.861C7.25335 14.1896 7.36661 14.5065 7.50646 14.8085C6.90367 14.9334 6.23233 15 5.5 15C2.08805 15 0 13.5544 0 11.5V10C0 8.89543 0.89543 8 2 8H9ZM15 4.5C15 5.88071 13.8807 7 12.5 7C11.1193 7 10 5.88071 10 4.5C10 3.11929 11.1193 2 12.5 2C13.8807 2 15 3.11929 15 4.5ZM12.5 3C11.6716 3 11 3.67157 11 4.5C11 5.32843 11.6716 6 12.5 6C13.3284 6 14 5.32843 14 4.5C14 3.67157 13.3284 3 12.5 3ZM5.5 0C7.433 0 9 1.567 9 3.5C9 5.433 7.433 7 5.5 7C3.567 7 2 5.433 2 3.5C2 1.567 3.567 0 5.5 0ZM5.5 1C4.11929 1 3 2.11929 3 3.5C3 4.88071 4.11929 6 5.5 6C6.88071 6 8 4.88071 8 3.5C8 2.11929 6.88071 1 5.5 1ZM17 12.5C17 14.9853 14.9853 17 12.5 17C10.0147 17 8 14.9853 8 12.5C8 10.0147 10.0147 8 12.5 8C14.9853 8 17 10.0147 17 12.5ZM13 10.5C13 10.2239 12.7761 10 12.5 10C12.2239 10 12 10.2239 12 10.5V12H10.5C10.2239 12 10 12.2239 10 12.5C10 12.7761 10.2239 13 10.5 13H12V14.5C12 14.7761 12.2239 15 12.5 15C12.7761 15 13 14.7761 13 14.5V13H14.5C14.7761 13 15 12.7761 15 12.5C15 12.2239 14.7761 12 14.5 12H13V10.5Z" fill="#1ABC9C"/>
</svg>
