<svg width="32" height="32" viewBox="0 0 32 32" fill="none" xmlns="http://www.w3.org/2000/svg">
    <rect x="-0.35" y="0.35" width="31.3" height="30.3303" rx="4.65" transform="matrix(-1 0 0 1 31.3 0)" stroke="#ED4C67" stroke-opacity="0.5" stroke-width="0.7"/>
    <path d="M19.468 8.37258C19.1953 7.87195 18.6605 7.55133 18.1133 7.5682C17.042 7.55508 15.9689 7.55883 14.8975 7.56445C14.214 7.53258 13.5623 8.0482 13.3764 8.74008C13.302 9.09258 13.3144 9.45445 13.3002 9.81258C11.8836 9.82008 10.4687 9.79945 9.05377 9.8182C8.53668 9.77133 8.31887 10.5851 8.76335 10.8513C9.19897 11.0332 9.70012 10.9057 10.1605 10.9376C10.4899 14.9313 10.7821 18.9307 11.115 22.9245C11.1611 23.802 11.9473 24.4976 12.7654 24.4376C15.2535 24.4376 17.7415 24.4376 20.2295 24.4376C21.0476 24.4995 21.8339 23.8076 21.8835 22.932C22.2181 18.9363 22.5086 14.9351 22.8397 10.9376C23.3001 10.9076 23.796 11.0295 24.2333 10.8532C24.6814 10.5926 24.4671 9.77508 23.95 9.8182C22.5351 9.79945 21.1167 9.82008 19.7 9.81258C19.6735 9.32883 19.7337 8.7982 19.468 8.37258ZM18.2639 8.71758C18.6871 8.89758 18.6233 9.4207 18.6411 9.81258C17.2138 9.81258 15.7865 9.81258 14.3592 9.81258C14.3787 9.4207 14.3114 8.89195 14.7417 8.71758C15.9122 8.66508 17.0933 8.66508 18.2639 8.71758ZM21.7683 10.9376C21.4531 14.8207 21.1556 18.7057 20.8475 22.5888C20.8705 22.9713 20.6138 23.3595 20.2206 23.307C17.7379 23.3163 15.2535 23.3163 12.7707 23.307C12.3812 23.3557 12.1315 22.9657 12.1527 22.5888C11.8446 18.7038 11.5471 14.8207 11.2319 10.9376C14.7435 10.9376 18.2568 10.9376 21.7683 10.9376Z" fill="#ED4C67"/>
    <path d="M18.3896 13.8346C18.0744 13.5684 17.5361 13.8627 17.5679 14.294C17.5679 16.2346 17.5378 18.1809 17.5839 20.1215C17.7308 20.714 18.6588 20.579 18.6198 19.9565C18.6393 18.2015 18.6127 16.4465 18.6304 14.6915C18.6216 14.3934 18.6747 14.0146 18.3896 13.8346Z" fill="#ED4C67"/>
    <path d="M15.2075 13.8382C14.8959 13.5663 14.354 13.8588 14.3805 14.2863C14.3699 16.18 14.3699 18.0738 14.3805 19.9675C14.3522 20.5844 15.2784 20.71 15.4165 20.1175C15.4731 18.3663 15.4147 16.6132 15.443 14.8619C15.4165 14.5188 15.5351 14.0594 15.2075 13.8382Z" fill="#ED4C67"/>
</svg>

