
<svg width="32" height="32" viewBox="0 0 32 32" fill="none" xmlns="http://www.w3.org/2000/svg">
<rect opacity="0.5" x="-0.35" y="0.35" width="31.3" height="30.3303" rx="4.65" transform="matrix(-1 0 0 1 31.3 0)" stroke="#1ABC9C" stroke-width="0.7"/>
<path d="M12.0781 8H11.4141C10.1703 8.155 9.1375 9.26167 9 10.59V11.2317C9.14062 12.6783 10.3484 13.5067 11.1891 14.4917C13.7828 17.22 16.3313 20.0017 18.9328 22.7183C20.4188 23.1883 21.9391 23.5517 23.4328 24H23.5422C23.6531 23.8017 23.8125 23.635 24 23.52V23.4417C23.6562 21.955 23.2609 20.4817 22.925 18.9917C22.8609 18.4767 22.4234 18.1917 22.1172 17.8433C19.3531 14.9 16.5906 11.9567 13.8375 9.00333C13.3609 8.48833 12.7453 8.135 12.0781 8ZM12.9391 9.48333C12.0906 10.395 11.2406 11.3033 10.3844 12.2067C10.1734 11.8433 9.95781 11.4583 9.9375 11.0183C9.87813 10.1083 10.5219 9.23833 11.3516 9.04833C11.9156 8.88 12.4812 9.14667 12.9391 9.48333ZM14.2312 10.9C13.3844 11.7867 12.5516 12.6867 11.7125 13.5817C11.5047 13.36 11.2969 13.1367 11.0891 12.915C11.9313 12.02 12.7687 11.12 13.6125 10.2267C13.8187 10.45 14.025 10.675 14.2312 10.9ZM21.5547 18.7067C21.1266 18.9 20.7 19.095 20.2719 19.2883C18.1781 17.0633 16.0891 14.8317 13.9984 12.6C14.3062 12.2767 14.6125 11.9517 14.9187 11.6283C17.1328 13.985 19.3453 16.3433 21.5547 18.7067ZM13.3141 13.3317C15.4016 15.5617 17.4953 17.785 19.5781 20.0183C19.3969 20.475 19.2141 20.9317 19.0312 21.3883C16.8203 19.03 14.6094 16.675 12.4016 14.3133C12.7047 13.985 13.0094 13.6583 13.3141 13.3317ZM22.0734 19.57C22.3453 20.6433 22.6016 21.72 22.8688 22.7933C21.8625 22.5083 20.8531 22.235 19.8469 21.945C20.0828 21.3983 20.2547 20.8167 20.5422 20.2967C21.0297 20.005 21.5656 19.8167 22.0734 19.57Z" fill="#1ABC9C"/>
</svg>
