<svg width="15" height="16" viewBox="0 0 15 16" fill="none" xmlns="http://www.w3.org/2000/svg">
    <path d="M3.07812 0H2.41406C1.17031 0.155 0.1375 1.26167 0 2.59V3.23167C0.140625 4.67833 1.34844 5.50667 2.18906 6.49167C4.78281 9.22 7.33125 12.0017 9.93281 14.7183C11.4187 15.1883 12.9391 15.5517 14.4328 16H14.5422C14.6531 15.8017 14.8125 15.635 15 15.52V15.4417C14.6562 13.955 14.2609 12.4817 13.925 10.9917C13.8609 10.4767 13.4234 10.1917 13.1172 9.84333C10.3531 6.9 7.59062 3.95667 4.8375 1.00333C4.36094 0.488333 3.74531 0.135 3.07812 0ZM3.93906 1.48333C3.09062 2.395 2.24063 3.30333 1.38438 4.20667C1.17344 3.84333 0.957812 3.45833 0.9375 3.01833C0.878125 2.10833 1.52188 1.23833 2.35156 1.04833C2.91563 0.88 3.48125 1.14667 3.93906 1.48333ZM5.23125 2.9C4.38437 3.78667 3.55156 4.68667 2.7125 5.58167C2.50469 5.36 2.29688 5.13667 2.08906 4.915C2.93125 4.02 3.76875 3.12 4.6125 2.22667C4.81875 2.45 5.025 2.675 5.23125 2.9ZM12.5547 10.7067C12.1266 10.9 11.7 11.095 11.2719 11.2883C9.17812 9.06333 7.08906 6.83167 4.99844 4.6C5.30625 4.27667 5.6125 3.95167 5.91875 3.62833C8.13281 5.985 10.3453 8.34333 12.5547 10.7067ZM4.31406 5.33167C6.40156 7.56167 8.49531 9.785 10.5781 12.0183C10.3969 12.475 10.2141 12.9317 10.0313 13.3883C7.82031 11.03 5.60937 8.675 3.40156 6.31333C3.70469 5.985 4.00938 5.65833 4.31406 5.33167ZM13.0734 11.57C13.3453 12.6433 13.6016 13.72 13.8688 14.7933C12.8625 14.5083 11.8531 14.235 10.8469 13.945C11.0828 13.3983 11.2547 12.8167 11.5422 12.2967C12.0297 12.005 12.5656 11.8167 13.0734 11.57Z" fill="#C4C4C4"/>
</svg>

