<?xml version="1.0" encoding="iso-8859-1"?>
<!-- Generator: Adobe Illustrator 19.0.0, SVG Export Plug-In . SVG Version: 6.00 Build 0)  -->
<svg version="1.1" id="Layer_1" xmlns="http://www.w3.org/2000/svg" xmlns:xlink="http://www.w3.org/1999/xlink" x="0px" y="0px"
	 viewBox="0 0 512 512" style="enable-background:new 0 0 512 512;" xml:space="preserve">
<g>
	<g>
		<path d="M503.83,67.178c-4.512,0-8.17,3.658-8.17,8.17V495.66H76.045c-4.512,0-8.17,3.658-8.17,8.17s3.658,8.17,8.17,8.17H503.83
			c4.512,0,8.17-3.658,8.17-8.17V75.348C512,70.835,508.342,67.178,503.83,67.178z"/>
	</g>
</g>
<g>
	<g>
		<path d="M503.83,0h-35.182c-4.512,0-8.17,3.658-8.17,8.17s3.658,8.17,8.17,8.17h27.012v26.327c0,4.512,3.658,8.17,8.17,8.17
			s8.17-3.658,8.17-8.17V8.17C512,3.658,508.342,0,503.83,0z"/>
	</g>
</g>
<g>
	<g>
		<path d="M435.967,0H8.17C3.658,0,0,3.658,0,8.17v428.482c0,4.513,3.658,8.17,8.17,8.17s8.17-3.658,8.17-8.17V16.34h419.626
			c4.512,0,8.17-3.658,8.17-8.17S440.479,0,435.967,0z"/>
	</g>
</g>
<g>
	<g>
		<path d="M43.364,495.66H16.34v-26.327c0-4.512-3.658-8.17-8.17-8.17S0,464.821,0,469.333v34.497c0,4.512,3.658,8.17,8.17,8.17
			h35.194c4.512,0,8.17-3.658,8.17-8.17S47.876,495.66,43.364,495.66z"/>
	</g>
</g>
<g>
	<g>
		<path d="M468.648,324.993c4.512,0,8.17-3.658,8.17-8.17v-43.574c0-4.512-3.658-8.17-8.17-8.17H234.435
			c-4.512,0-8.17,3.658-8.17,8.17v43.574c0,4.512,3.658,8.17,8.17,8.17h2.723v16.34h-2.723c-4.512,0-8.17,3.658-8.17,8.17v43.574
			c0,4.512,3.658,8.17,8.17,8.17h2.723v16.34h-2.723c-4.512,0-8.17,3.658-8.17,8.17v43.575c0,4.512,3.658,8.17,8.17,8.17h234.213
			c4.512,0,8.17-3.658,8.17-8.17v-43.575c0-4.512-3.658-8.17-8.17-8.17h-2.723v-16.34h2.723c4.512,0,8.17-3.658,8.17-8.17v-43.574
			c0-4.512-3.658-8.17-8.17-8.17h-2.723v-16.34H468.648z M460.478,461.163H242.605v-27.234h217.872V461.163z M460.478,384.907
			h-35.404c-4.512,0-8.17,3.658-8.17,8.17c0,4.512,3.658,8.17,8.17,8.17h24.511v16.34H253.499v-16.34h138.894
			c4.512,0,8.17-3.658,8.17-8.17c0-4.512-3.658-8.17-8.17-8.17H242.605v-27.234h217.872V384.907z M253.499,341.333v-16.34h196.085
			v16.34H253.499z M460.478,308.652H242.605v-27.234h0h217.872V308.652z"/>
	</g>
</g>
<g>
	<g>
		<path d="M277.577,94.412c4.512,0,8.17-3.658,8.17-8.17V42.667c0-4.512-3.658-8.17-8.17-8.17H43.364c-4.512,0-8.17,3.658-8.17,8.17
			v43.574c0,4.512,3.658,8.17,8.17,8.17h2.723v16.34h-2.723c-4.512,0-8.17,3.658-8.17,8.17v43.574c0,4.512,3.658,8.17,8.17,8.17
			h2.723v16.34h-2.723c-4.512,0-8.17,3.658-8.17,8.17v43.574c0,4.512,3.658,8.17,8.17,8.17h234.213c4.512,0,8.17-3.658,8.17-8.17
			v-43.574c0-4.512-3.658-8.17-8.17-8.17h-2.723v-16.34h2.723c4.512,0,8.17-3.658,8.17-8.17v-43.574c0-4.512-3.658-8.17-8.17-8.17
			h-2.723v-16.34H277.577z M269.407,230.582H51.534v-27.234h217.872V230.582z M269.407,154.327h-35.404
			c-4.512,0-8.17,3.658-8.17,8.17s3.658,8.17,8.17,8.17h24.511v16.34H62.428c0,0,0-16.34,0-16.34h138.894
			c4.512,0,8.17-3.658,8.17-8.17s-3.658-8.17-8.17-8.17H51.534v-27.234h217.872V154.327z M62.428,94.412h196.085v16.34H62.428
			C62.428,110.752,62.428,94.412,62.428,94.412z M269.407,78.071H51.534c0,0,0-27.234,0-27.234h217.872V78.071z"/>
	</g>
</g>
<g>
	<g>
		<circle cx="88.968" cy="370.383" r="8.17"/>
	</g>
</g>
<g>
	<g>
		<circle cx="121.649" cy="370.383" r="8.17"/>
	</g>
</g>
<g>
	<g>
		<circle cx="154.33" cy="370.383" r="8.17"/>
	</g>
</g>
<g>
	<g>
		<circle cx="423.032" cy="141.617" r="8.17"/>
	</g>
</g>
<g>
	<g>
		<circle cx="390.351" cy="141.617" r="8.17"/>
	</g>
</g>
<g>
	<g>
		<circle cx="357.67" cy="141.617" r="8.17"/>
	</g>
</g>
<g>
</g>
<g>
</g>
<g>
</g>
<g>
</g>
<g>
</g>
<g>
</g>
<g>
</g>
<g>
</g>
<g>
</g>
<g>
</g>
<g>
</g>
<g>
</g>
<g>
</g>
<g>
</g>
<g>
</g>
</svg>
